<svg width="315" height="36" viewBox="0 0 315 36" fill="none" xmlns="http://www.w3.org/2000/svg">
<rect width="150" height="36" rx="7" fill="#1877F2"/>
<path d="M53.4922 18.7891L55.7344 19.5C55.3906 20.75 54.8177 21.6797 54.0156 22.2891C53.2188 22.8932 52.2057 23.1953 50.9766 23.1953C49.4557 23.1953 48.2057 22.6771 47.2266 21.6406C46.2474 20.599 45.7578 19.1771 45.7578 17.375C45.7578 15.4688 46.25 13.9896 47.2344 12.9375C48.2188 11.8802 49.513 11.3516 51.1172 11.3516C52.5182 11.3516 53.6562 11.7656 54.5312 12.5938C55.0521 13.0833 55.4427 13.7865 55.7031 14.7031L53.4141 15.25C53.2786 14.6562 52.9948 14.1875 52.5625 13.8438C52.1354 13.5 51.6146 13.3281 51 13.3281C50.151 13.3281 49.4609 13.6328 48.9297 14.2422C48.4036 14.8516 48.1406 15.8385 48.1406 17.2031C48.1406 18.651 48.401 19.6823 48.9219 20.2969C49.4427 20.9115 50.1198 21.2188 50.9531 21.2188C51.5677 21.2188 52.0964 21.0234 52.5391 20.6328C52.9818 20.2422 53.2995 19.6276 53.4922 18.7891ZM57.2031 18.7344C57.2031 18.0052 57.3828 17.2995 57.7422 16.6172C58.1016 15.9349 58.6094 15.4141 59.2656 15.0547C59.9271 14.6953 60.6641 14.5156 61.4766 14.5156C62.7318 14.5156 63.7604 14.9245 64.5625 15.7422C65.3646 16.5547 65.7656 17.5833 65.7656 18.8281C65.7656 20.0833 65.3594 21.125 64.5469 21.9531C63.7396 22.776 62.7214 23.1875 61.4922 23.1875C60.7318 23.1875 60.0052 23.0156 59.3125 22.6719C58.625 22.3281 58.1016 21.8255 57.7422 21.1641C57.3828 20.4974 57.2031 19.6875 57.2031 18.7344ZM59.4531 18.8516C59.4531 19.6745 59.6484 20.3047 60.0391 20.7422C60.4297 21.1797 60.9115 21.3984 61.4844 21.3984C62.0573 21.3984 62.5365 21.1797 62.9219 20.7422C63.3125 20.3047 63.5078 19.6693 63.5078 18.8359C63.5078 18.0234 63.3125 17.3984 62.9219 16.9609C62.5365 16.5234 62.0573 16.3047 61.4844 16.3047C60.9115 16.3047 60.4297 16.5234 60.0391 16.9609C59.6484 17.3984 59.4531 18.0286 59.4531 18.8516ZM75.0391 23H72.8438V18.7656C72.8438 17.8698 72.7969 17.2917 72.7031 17.0312C72.6094 16.7656 72.4557 16.5599 72.2422 16.4141C72.0339 16.2682 71.7812 16.1953 71.4844 16.1953C71.1042 16.1953 70.763 16.2995 70.4609 16.5078C70.1589 16.7161 69.9505 16.9922 69.8359 17.3359C69.7266 17.6797 69.6719 18.3151 69.6719 19.2422V23H67.4766V14.7031H69.5156V15.9219C70.2396 14.9844 71.151 14.5156 72.25 14.5156C72.7344 14.5156 73.1771 14.6042 73.5781 14.7812C73.9792 14.9531 74.2812 15.1745 74.4844 15.4453C74.6927 15.7161 74.8359 16.0234 74.9141 16.3672C74.9974 16.7109 75.0391 17.2031 75.0391 17.8438V23ZM76.3125 14.7031H77.5312V14.0781C77.5312 13.3802 77.6042 12.8594 77.75 12.5156C77.901 12.1719 78.1745 11.8932 78.5703 11.6797C78.9714 11.4609 79.4766 11.3516 80.0859 11.3516C80.7109 11.3516 81.3229 11.4453 81.9219 11.6328L81.625 13.1641C81.276 13.0807 80.9401 13.0391 80.6172 13.0391C80.2995 13.0391 80.0703 13.1146 79.9297 13.2656C79.7943 13.4115 79.7266 13.6953 79.7266 14.1172V14.7031H81.3672V16.4297H79.7266V23H77.5312V16.4297H76.3125V14.7031ZM82.6016 13.5781V11.5469H84.7969V13.5781H82.6016ZM82.6016 23V14.7031H84.7969V23H82.6016ZM89.1562 23H86.9609V14.7031H89V15.8828C89.349 15.3255 89.6615 14.9583 89.9375 14.7812C90.2188 14.6042 90.5365 14.5156 90.8906 14.5156C91.3906 14.5156 91.8724 14.6536 92.3359 14.9297L91.6562 16.8438C91.2865 16.6042 90.9427 16.4844 90.625 16.4844C90.3177 16.4844 90.0573 16.5703 89.8438 16.7422C89.6302 16.9089 89.4609 17.2135 89.3359 17.6562C89.2161 18.099 89.1562 19.026 89.1562 20.4375V23ZM93.125 14.7031H95.1484V15.8359C95.8724 14.9557 96.7344 14.5156 97.7344 14.5156C98.2656 14.5156 98.7266 14.625 99.1172 14.8438C99.5078 15.0625 99.8281 15.3932 100.078 15.8359C100.443 15.3932 100.836 15.0625 101.258 14.8438C101.68 14.625 102.13 14.5156 102.609 14.5156C103.219 14.5156 103.734 14.6406 104.156 14.8906C104.578 15.1354 104.893 15.4974 105.102 15.9766C105.253 16.3307 105.328 16.9036 105.328 17.6953V23H103.133V18.2578C103.133 17.4349 103.057 16.9036 102.906 16.6641C102.703 16.3516 102.391 16.1953 101.969 16.1953C101.661 16.1953 101.372 16.2891 101.102 16.4766C100.831 16.6641 100.635 16.9401 100.516 17.3047C100.396 17.6641 100.336 18.2344 100.336 19.0156V23H98.1406V18.4531C98.1406 17.6458 98.1016 17.125 98.0234 16.8906C97.9453 16.6562 97.8229 16.4818 97.6562 16.3672C97.4948 16.2526 97.2734 16.1953 96.9922 16.1953C96.6536 16.1953 96.349 16.2865 96.0781 16.4688C95.8073 16.651 95.612 16.9141 95.4922 17.2578C95.3776 17.6016 95.3203 18.1719 95.3203 18.9688V23H93.125V14.7031Z" fill="white"/>
<rect x="165" width="150" height="36" rx="7" fill="#E4E6EB"/>
<path d="M218.156 11.5469H222.383C223.336 11.5469 224.062 11.6198 224.562 11.7656C225.234 11.9635 225.81 12.3151 226.289 12.8203C226.768 13.3255 227.133 13.9453 227.383 14.6797C227.633 15.4089 227.758 16.3099 227.758 17.3828C227.758 18.3255 227.641 19.138 227.406 19.8203C227.12 20.6536 226.711 21.3281 226.18 21.8438C225.779 22.2344 225.237 22.5391 224.555 22.7578C224.044 22.9193 223.362 23 222.508 23H218.156V11.5469ZM220.469 13.4844V21.0703H222.195C222.841 21.0703 223.307 21.0339 223.594 20.9609C223.969 20.8672 224.279 20.7083 224.523 20.4844C224.773 20.2604 224.977 19.8932 225.133 19.3828C225.289 18.8672 225.367 18.1667 225.367 17.2812C225.367 16.3958 225.289 15.7161 225.133 15.2422C224.977 14.7682 224.758 14.3984 224.477 14.1328C224.195 13.8672 223.839 13.6875 223.406 13.5938C223.083 13.5208 222.451 13.4844 221.508 13.4844H220.469ZM234.516 20.3594L236.703 20.7266C236.422 21.5286 235.977 22.1406 235.367 22.5625C234.763 22.9792 234.005 23.1875 233.094 23.1875C231.651 23.1875 230.583 22.7161 229.891 21.7734C229.344 21.0182 229.07 20.0651 229.07 18.9141C229.07 17.5391 229.43 16.4635 230.148 15.6875C230.867 14.9062 231.776 14.5156 232.875 14.5156C234.109 14.5156 235.083 14.9245 235.797 15.7422C236.51 16.5547 236.852 17.8021 236.82 19.4844H231.32C231.336 20.1354 231.513 20.6432 231.852 21.0078C232.19 21.3672 232.612 21.5469 233.117 21.5469C233.461 21.5469 233.75 21.4531 233.984 21.2656C234.219 21.0781 234.396 20.776 234.516 20.3594ZM234.641 18.1406C234.625 17.5052 234.461 17.0234 234.148 16.6953C233.836 16.362 233.456 16.1953 233.008 16.1953C232.529 16.1953 232.133 16.3698 231.82 16.7188C231.508 17.0677 231.354 17.5417 231.359 18.1406H234.641ZM238.617 23V11.5469H240.812V23H238.617ZM247.875 20.3594L250.062 20.7266C249.781 21.5286 249.336 22.1406 248.727 22.5625C248.122 22.9792 247.365 23.1875 246.453 23.1875C245.01 23.1875 243.943 22.7161 243.25 21.7734C242.703 21.0182 242.43 20.0651 242.43 18.9141C242.43 17.5391 242.789 16.4635 243.508 15.6875C244.227 14.9062 245.135 14.5156 246.234 14.5156C247.469 14.5156 248.443 14.9245 249.156 15.7422C249.87 16.5547 250.211 17.8021 250.18 19.4844H244.68C244.695 20.1354 244.872 20.6432 245.211 21.0078C245.549 21.3672 245.971 21.5469 246.477 21.5469C246.82 21.5469 247.109 21.4531 247.344 21.2656C247.578 21.0781 247.755 20.776 247.875 20.3594ZM248 18.1406C247.984 17.5052 247.82 17.0234 247.508 16.6953C247.195 16.362 246.815 16.1953 246.367 16.1953C245.888 16.1953 245.492 16.3698 245.18 16.7188C244.867 17.0677 244.714 17.5417 244.719 18.1406H248ZM255.781 14.7031V16.4531H254.281V19.7969C254.281 20.474 254.294 20.8698 254.32 20.9844C254.352 21.0938 254.417 21.1849 254.516 21.2578C254.62 21.3307 254.745 21.3672 254.891 21.3672C255.094 21.3672 255.388 21.2969 255.773 21.1562L255.961 22.8594C255.451 23.0781 254.872 23.1875 254.227 23.1875C253.831 23.1875 253.474 23.1224 253.156 22.9922C252.839 22.8568 252.604 22.6849 252.453 22.4766C252.307 22.263 252.206 21.9766 252.148 21.6172C252.102 21.362 252.078 20.8464 252.078 20.0703V16.4531H251.07V14.7031H252.078V13.0547L254.281 11.7734V14.7031H255.781ZM262.109 20.3594L264.297 20.7266C264.016 21.5286 263.57 22.1406 262.961 22.5625C262.357 22.9792 261.599 23.1875 260.688 23.1875C259.245 23.1875 258.177 22.7161 257.484 21.7734C256.938 21.0182 256.664 20.0651 256.664 18.9141C256.664 17.5391 257.023 16.4635 257.742 15.6875C258.461 14.9062 259.37 14.5156 260.469 14.5156C261.703 14.5156 262.677 14.9245 263.391 15.7422C264.104 16.5547 264.445 17.8021 264.414 19.4844H258.914C258.93 20.1354 259.107 20.6432 259.445 21.0078C259.784 21.3672 260.206 21.5469 260.711 21.5469C261.055 21.5469 261.344 21.4531 261.578 21.2656C261.812 21.0781 261.99 20.776 262.109 20.3594ZM262.234 18.1406C262.219 17.5052 262.055 17.0234 261.742 16.6953C261.43 16.362 261.049 16.1953 260.602 16.1953C260.122 16.1953 259.727 16.3698 259.414 16.7188C259.102 17.0677 258.948 17.5417 258.953 18.1406H262.234Z" fill="black"/>
</svg>
