<svg width="565" height="24" viewBox="0 0 565 24" fill="none" xmlns="http://www.w3.org/2000/svg">
<path d="M19.7727 2.90909C20.1223 2.90909 20.4576 3.04797 20.7048 3.29517C20.952 3.54238 21.0909 3.87767 21.0909 4.22727V9.76363L27.9626 4.95227C28.0614 4.88301 28.1773 4.8422 28.2977 4.83429C28.4181 4.82639 28.5384 4.85169 28.6454 4.90744C28.7524 4.9632 28.8421 5.04726 28.9046 5.15046C28.9671 5.25367 29.0001 5.37206 29 5.49272V21.4164C29.0001 21.537 28.9671 21.6554 28.9046 21.7586C28.8421 21.8618 28.7524 21.9459 28.6454 22.0016C28.5384 22.0574 28.4181 22.0827 28.2977 22.0748C28.1773 22.0669 28.0614 22.0261 27.9626 21.9568L21.0909 17.1454V22.6818C21.0909 23.0314 20.952 23.3667 20.7048 23.6139C20.4576 23.8611 20.1223 24 19.7727 24H1.31818C0.968578 24 0.633294 23.8611 0.386086 23.6139C0.138879 23.3667 0 23.0314 0 22.6818V4.22727C0 3.87767 0.138879 3.54238 0.386086 3.29517C0.633294 3.04797 0.968578 2.90909 1.31818 2.90909H19.7727ZM8.43636 9.27459C8.31481 9.27456 8.19698 9.31653 8.10282 9.3934C8.00866 9.47027 7.94395 9.57731 7.91964 9.6964L7.90909 9.80054V17.1059C7.90908 17.1913 7.92981 17.2754 7.96949 17.351C8.00917 17.4266 8.06662 17.4915 8.1369 17.54C8.20718 17.5884 8.28819 17.6192 8.37296 17.6294C8.45772 17.6397 8.54372 17.6292 8.62355 17.5989L8.71977 17.5514L14.4605 13.8988C14.5275 13.8558 14.5839 13.7982 14.6255 13.7303C14.6672 13.6625 14.6929 13.5861 14.7009 13.5069C14.7089 13.4277 14.6989 13.3477 14.6716 13.2729C14.6444 13.1981 14.6006 13.1304 14.5435 13.0749L14.4605 13.009L8.71977 9.355C8.63472 9.30227 8.53642 9.27352 8.43636 9.27459Z" fill="#F24E1E"/>
<path d="M36.44 18.9545V7.75453H37.96V17.5945H43.096V18.9545H36.44ZM44.4519 18.9545V10.6345H45.8919V18.9545H44.4519ZM45.1719 9.21053C44.8945 9.21053 44.6545 9.1092 44.4519 8.90653C44.2599 8.70386 44.1639 8.4692 44.1639 8.20253C44.1639 7.89319 44.2545 7.64786 44.4359 7.46653C44.6172 7.2852 44.8625 7.19453 45.1719 7.19453C45.4492 7.19453 45.6839 7.29586 45.8759 7.49853C46.0785 7.69053 46.1799 7.9252 46.1799 8.20253C46.1799 8.50119 46.0892 8.74653 45.9079 8.93853C45.7265 9.11986 45.4812 9.21053 45.1719 9.21053ZM50.6759 18.9545L47.3319 11.0185L48.6439 10.4745L51.4759 17.3225L54.3079 10.4745L55.5399 11.0185L52.1799 18.9545H50.6759ZM59.9986 19.1465C58.804 19.1465 57.8546 18.7679 57.1506 18.0105C56.4573 17.2425 56.1106 16.1705 56.1106 14.7945C56.1106 13.9625 56.2653 13.2212 56.5746 12.5705C56.8946 11.9092 57.3373 11.3919 57.9026 11.0185C58.468 10.6345 59.124 10.4425 59.8706 10.4425C60.6706 10.4425 61.332 10.6185 61.8546 10.9705C62.388 11.3119 62.788 11.7759 63.0546 12.3625C63.3213 12.9492 63.4546 13.5945 63.4546 14.2985C63.4546 14.6719 63.4386 15.0345 63.4066 15.3865H57.5826C57.6786 16.1652 57.9506 16.7732 58.3986 17.2105C58.8466 17.6479 59.4386 17.8665 60.1746 17.8665C60.6546 17.8665 61.0866 17.8185 61.4706 17.7225C61.8546 17.6159 62.2226 17.4825 62.5746 17.3225L62.9106 18.5545C62.5266 18.7252 62.0946 18.8639 61.6146 18.9705C61.1346 19.0879 60.596 19.1465 59.9986 19.1465ZM57.5666 14.2185H62.1266C62.1266 13.4079 61.924 12.7839 61.5186 12.3465C61.1133 11.9092 60.5533 11.6905 59.8386 11.6905C59.22 11.6905 58.708 11.9092 58.3026 12.3465C57.8973 12.7732 57.652 13.3972 57.5666 14.2185ZM72.3946 18.9545L69.0506 11.0185L70.3626 10.4745L73.1946 17.3225L76.0266 10.4745L77.2586 11.0185L73.8986 18.9545H72.3946ZM78.7019 18.9545V10.6345H80.1419V18.9545H78.7019ZM79.4219 9.21053C79.1445 9.21053 78.9045 9.1092 78.7019 8.90653C78.5099 8.70386 78.4139 8.4692 78.4139 8.20253C78.4139 7.89319 78.5045 7.64786 78.6859 7.46653C78.8672 7.2852 79.1125 7.19453 79.4219 7.19453C79.6992 7.19453 79.9339 7.29586 80.1259 7.49853C80.3285 7.69053 80.4299 7.9252 80.4299 8.20253C80.4299 8.50119 80.3392 8.74653 80.1579 8.93853C79.9765 9.11986 79.7312 9.21053 79.4219 9.21053ZM85.8539 19.1465C85.1712 19.1465 84.5472 18.9705 83.9819 18.6185C83.4165 18.2665 82.9685 17.7705 82.6379 17.1305C82.3072 16.4799 82.1419 15.7172 82.1419 14.8425C82.1419 13.9999 82.3072 13.2479 82.6379 12.5865C82.9792 11.9252 83.4272 11.4025 83.9819 11.0185C84.5472 10.6345 85.1659 10.4425 85.8379 10.4425C86.3925 10.4425 86.8672 10.5545 87.2619 10.7785C87.6672 11.0025 87.9819 11.2319 88.2059 11.4665V7.11453H89.6459V16.9385C89.6459 17.3439 89.7419 17.6105 89.9339 17.7385C90.1365 17.8559 90.3552 17.9145 90.5899 17.9145L90.2859 19.0345C89.2725 19.0345 88.6539 18.6292 88.4299 17.8185C88.1952 18.1492 87.8645 18.4532 87.4379 18.7305C87.0219 19.0079 86.4939 19.1465 85.8539 19.1465ZM86.1739 17.8665C86.5685 17.8665 86.9419 17.7759 87.2939 17.5945C87.6565 17.4025 87.9605 17.1572 88.2059 16.8585V12.7305C88.0032 12.4745 87.7205 12.2399 87.3579 12.0265C86.9952 11.8025 86.5952 11.6905 86.1579 11.6905C85.6459 11.6905 85.1979 11.8292 84.8139 12.1065C84.4299 12.3839 84.1312 12.7572 83.9179 13.2265C83.7152 13.6852 83.6139 14.2079 83.6139 14.7945C83.6139 15.3812 83.7259 15.9092 83.9499 16.3785C84.1739 16.8372 84.4779 17.1999 84.8619 17.4665C85.2565 17.7332 85.6939 17.8665 86.1739 17.8665ZM95.6861 19.1465C94.4915 19.1465 93.5421 18.7679 92.8381 18.0105C92.1448 17.2425 91.7981 16.1705 91.7981 14.7945C91.7981 13.9625 91.9528 13.2212 92.2621 12.5705C92.5821 11.9092 93.0248 11.3919 93.5901 11.0185C94.1555 10.6345 94.8115 10.4425 95.5581 10.4425C96.3581 10.4425 97.0195 10.6185 97.5421 10.9705C98.0755 11.3119 98.4755 11.7759 98.7421 12.3625C99.0088 12.9492 99.1421 13.5945 99.1421 14.2985C99.1421 14.6719 99.1261 15.0345 99.0941 15.3865H93.2701C93.3661 16.1652 93.6381 16.7732 94.0861 17.2105C94.5341 17.6479 95.1261 17.8665 95.8621 17.8665C96.3421 17.8665 96.7741 17.8185 97.1581 17.7225C97.5421 17.6159 97.9101 17.4825 98.2621 17.3225L98.5981 18.5545C98.2141 18.7252 97.7821 18.8639 97.3021 18.9705C96.8221 19.0879 96.2835 19.1465 95.6861 19.1465ZM93.2541 14.2185H97.8141C97.8141 13.4079 97.6115 12.7839 97.2061 12.3465C96.8008 11.9092 96.2408 11.6905 95.5261 11.6905C94.9075 11.6905 94.3955 11.9092 93.9901 12.3465C93.5848 12.7732 93.3395 13.3972 93.2541 14.2185ZM104.565 19.1465C103.776 19.1465 103.067 18.9652 102.437 18.6025C101.808 18.2292 101.312 17.7172 100.949 17.0665C100.597 16.4052 100.421 15.6479 100.421 14.7945C100.421 13.8985 100.603 13.1252 100.965 12.4745C101.328 11.8239 101.824 11.3225 102.453 10.9705C103.083 10.6185 103.787 10.4425 104.565 10.4425C105.344 10.4425 106.043 10.6185 106.661 10.9705C107.291 11.3225 107.787 11.8239 108.149 12.4745C108.523 13.1145 108.709 13.8772 108.709 14.7625C108.709 15.6479 108.528 16.4212 108.165 17.0825C107.803 17.7332 107.307 18.2399 106.677 18.6025C106.059 18.9652 105.355 19.1465 104.565 19.1465ZM104.565 17.8665C105.408 17.8665 106.064 17.5839 106.533 17.0185C107.003 16.4425 107.237 15.7012 107.237 14.7945C107.237 14.2399 107.12 13.7332 106.885 13.2745C106.651 12.8052 106.331 12.4319 105.925 12.1545C105.531 11.8665 105.077 11.7225 104.565 11.7225C103.723 11.7225 103.067 11.9999 102.597 12.5545C102.128 13.1092 101.893 13.8452 101.893 14.7625C101.893 15.3172 102.011 15.8345 102.245 16.3145C102.48 16.7839 102.795 17.1625 103.189 17.4505C103.595 17.7279 104.053 17.8665 104.565 17.8665Z" fill="black"/>
<path d="M226 0H210C209.47 0 208.961 0.210714 208.586 0.585786C208.211 0.960859 208 1.46957 208 2V4H206C205.47 4 204.961 4.21071 204.586 4.58579C204.211 4.96086 204 5.46957 204 6V22C204 22.5304 204.211 23.0391 204.586 23.4142C204.961 23.7893 205.47 24 206 24H222C222.53 24 223.039 23.7893 223.414 23.4142C223.789 23.0391 224 22.5304 224 22V20H226C226.53 20 227.039 19.7893 227.414 19.4142C227.789 19.0391 228 18.5304 228 18V2C228 1.46957 227.789 0.960859 227.414 0.585786C227.039 0.210714 226.53 0 226 0ZM210 2H226V10.6725L223.913 8.585C223.537 8.21021 223.029 7.99968 222.499 7.99968C221.969 7.99968 221.46 8.21021 221.085 8.585L211.671 18H210V2ZM222 22H206V6H208V18C208 18.5304 208.211 19.0391 208.586 19.4142C208.961 19.7893 209.47 20 210 20H222V22ZM213 7C213 6.60444 213.117 6.21776 213.337 5.88886C213.557 5.55996 213.869 5.30362 214.235 5.15224C214.6 5.00087 215.002 4.96126 215.39 5.03843C215.778 5.1156 216.135 5.30608 216.414 5.58579C216.694 5.86549 216.884 6.22186 216.962 6.60982C217.039 6.99778 216.999 7.39991 216.848 7.76537C216.696 8.13082 216.44 8.44318 216.111 8.66294C215.782 8.8827 215.396 9 215 9C214.47 9 213.961 8.78929 213.586 8.41421C213.211 8.03914 213 7.53043 213 7Z" fill="#00A400"/>
<path d="M235.44 17.5V6.332C235.877 6.27867 236.357 6.24133 236.88 6.22C237.413 6.188 237.963 6.172 238.528 6.172C239.456 6.172 240.245 6.32133 240.896 6.62C241.547 6.908 242.043 7.308 242.384 7.82C242.725 8.332 242.896 8.91867 242.896 9.58C242.896 10.38 242.699 11.0573 242.304 11.612C241.909 12.1667 241.36 12.5933 240.656 12.892C239.952 13.18 239.136 13.324 238.208 13.324C237.76 13.324 237.344 13.308 236.96 13.276V17.5H235.44ZM238.4 12.06C239.349 12.06 240.085 11.8467 240.608 11.42C241.131 10.9933 241.392 10.4227 241.392 9.708C241.392 9.01467 241.141 8.46533 240.64 8.06C240.139 7.65467 239.424 7.452 238.496 7.452C238.208 7.452 237.936 7.45733 237.68 7.468C237.424 7.47867 237.184 7.49467 236.96 7.516V11.98C237.131 12.0013 237.339 12.0227 237.584 12.044C237.829 12.0547 238.101 12.06 238.4 12.06ZM244.577 17.5V5.66H246.017V10.508C246.316 10.0707 246.694 9.708 247.153 9.42C247.612 9.132 248.15 8.988 248.769 8.988C249.708 8.988 250.406 9.27067 250.865 9.836C251.334 10.4013 251.569 11.148 251.569 12.076V17.5H250.129V12.236C250.129 11.6387 249.99 11.1587 249.713 10.796C249.436 10.4333 249.046 10.252 248.545 10.252C248.054 10.252 247.585 10.428 247.137 10.78C246.7 11.1213 246.326 11.5267 246.017 11.996V17.5H244.577ZM257.55 17.692C256.76 17.692 256.051 17.5107 255.422 17.148C254.792 16.7747 254.296 16.2627 253.934 15.612C253.582 14.9507 253.406 14.1933 253.406 13.34C253.406 12.444 253.587 11.6707 253.95 11.02C254.312 10.3693 254.808 9.868 255.438 9.516C256.067 9.164 256.771 8.988 257.55 8.988C258.328 8.988 259.027 9.164 259.646 9.516C260.275 9.868 260.771 10.3693 261.134 11.02C261.507 11.66 261.694 12.4227 261.694 13.308C261.694 14.1933 261.512 14.9667 261.15 15.628C260.787 16.2787 260.291 16.7853 259.662 17.148C259.043 17.5107 258.339 17.692 257.55 17.692ZM257.55 16.412C258.392 16.412 259.048 16.1293 259.518 15.564C259.987 14.988 260.222 14.2467 260.222 13.34C260.222 12.7853 260.104 12.2787 259.87 11.82C259.635 11.3507 259.315 10.9773 258.91 10.7C258.515 10.412 258.062 10.268 257.55 10.268C256.707 10.268 256.051 10.5453 255.582 11.1C255.112 11.6547 254.878 12.3907 254.878 13.308C254.878 13.8627 254.995 14.38 255.23 14.86C255.464 15.3293 255.779 15.708 256.174 15.996C256.579 16.2733 257.038 16.412 257.55 16.412ZM266.52 17.692C265.72 17.692 265.085 17.4307 264.616 16.908C264.157 16.3747 263.928 15.6173 263.928 14.636V10.732H262.488V9.484H263.96L264.264 6.86H265.368V9.484H267.672V10.732H265.368V14.748C265.368 15.3667 265.496 15.7987 265.752 16.044C266.019 16.2893 266.333 16.412 266.696 16.412C266.963 16.412 267.213 16.3693 267.448 16.284C267.693 16.1987 267.917 16.0973 268.12 15.98L268.52 17.132C268.307 17.26 268.019 17.3827 267.656 17.5C267.293 17.628 266.915 17.692 266.52 17.692ZM273.159 17.692C272.37 17.692 271.66 17.5107 271.031 17.148C270.402 16.7747 269.906 16.2627 269.543 15.612C269.191 14.9507 269.015 14.1933 269.015 13.34C269.015 12.444 269.196 11.6707 269.559 11.02C269.922 10.3693 270.418 9.868 271.047 9.516C271.676 9.164 272.38 8.988 273.159 8.988C273.938 8.988 274.636 9.164 275.255 9.516C275.884 9.868 276.38 10.3693 276.743 11.02C277.116 11.66 277.303 12.4227 277.303 13.308C277.303 14.1933 277.122 14.9667 276.759 15.628C276.396 16.2787 275.9 16.7853 275.271 17.148C274.652 17.5107 273.948 17.692 273.159 17.692ZM273.159 16.412C274.002 16.412 274.658 16.1293 275.127 15.564C275.596 14.988 275.831 14.2467 275.831 13.34C275.831 12.7853 275.714 12.2787 275.479 11.82C275.244 11.3507 274.924 10.9773 274.519 10.7C274.124 10.412 273.671 10.268 273.159 10.268C272.316 10.268 271.66 10.5453 271.191 11.1C270.722 11.6547 270.487 12.3907 270.487 13.308C270.487 13.8627 270.604 14.38 270.839 14.86C271.074 15.3293 271.388 15.708 271.783 15.996C272.188 16.2733 272.647 16.412 273.159 16.412ZM279.874 18.636L278.69 18.236L283.202 5.132L284.386 5.532L279.874 18.636ZM288.41 17.5L285.066 9.564L286.378 9.02L289.21 15.868L292.042 9.02L293.274 9.564L289.914 17.5H288.41ZM294.718 17.5V9.18H296.158V17.5H294.718ZM295.438 7.756C295.16 7.756 294.92 7.65467 294.718 7.452C294.526 7.24933 294.43 7.01467 294.43 6.748C294.43 6.43867 294.52 6.19333 294.702 6.012C294.883 5.83067 295.128 5.74 295.438 5.74C295.715 5.74 295.95 5.84133 296.142 6.044C296.344 6.236 296.446 6.47067 296.446 6.748C296.446 7.04667 296.355 7.292 296.174 7.484C295.992 7.66533 295.747 7.756 295.438 7.756ZM301.87 17.692C301.187 17.692 300.563 17.516 299.998 17.164C299.432 16.812 298.984 16.316 298.654 15.676C298.323 15.0253 298.158 14.2627 298.158 13.388C298.158 12.5453 298.323 11.7933 298.654 11.132C298.995 10.4707 299.443 9.948 299.998 9.564C300.563 9.18 301.182 8.988 301.854 8.988C302.408 8.988 302.883 9.1 303.278 9.324C303.683 9.548 303.998 9.77733 304.222 10.012V5.66H305.661V15.484C305.661 15.8893 305.758 16.156 305.95 16.284C306.152 16.4013 306.371 16.46 306.606 16.46L306.302 17.58C305.288 17.58 304.67 17.1747 304.446 16.364C304.211 16.6947 303.88 16.9987 303.454 17.276C303.038 17.5533 302.51 17.692 301.87 17.692ZM302.19 16.412C302.584 16.412 302.958 16.3213 303.31 16.14C303.672 15.948 303.976 15.7027 304.222 15.404V11.276C304.019 11.02 303.736 10.7853 303.374 10.572C303.011 10.348 302.611 10.236 302.174 10.236C301.662 10.236 301.214 10.3747 300.83 10.652C300.446 10.9293 300.147 11.3027 299.934 11.772C299.731 12.2307 299.63 12.7533 299.63 13.34C299.63 13.9267 299.742 14.4547 299.966 14.924C300.19 15.3827 300.494 15.7453 300.878 16.012C301.272 16.2787 301.71 16.412 302.19 16.412ZM311.702 17.692C310.507 17.692 309.558 17.3133 308.854 16.556C308.16 15.788 307.814 14.716 307.814 13.34C307.814 12.508 307.968 11.7667 308.278 11.116C308.598 10.4547 309.04 9.93733 309.606 9.564C310.171 9.18 310.827 8.988 311.574 8.988C312.374 8.988 313.035 9.164 313.558 9.516C314.091 9.85733 314.491 10.3213 314.758 10.908C315.024 11.4947 315.158 12.14 315.158 12.844C315.158 13.2173 315.142 13.58 315.11 13.932H309.286C309.382 14.7107 309.654 15.3187 310.102 15.756C310.55 16.1933 311.142 16.412 311.878 16.412C312.358 16.412 312.79 16.364 313.174 16.268C313.558 16.1613 313.926 16.028 314.278 15.868L314.614 17.1C314.23 17.2707 313.798 17.4093 313.318 17.516C312.838 17.6333 312.299 17.692 311.702 17.692ZM309.27 12.764H313.83C313.83 11.9533 313.627 11.3293 313.222 10.892C312.816 10.4547 312.256 10.236 311.542 10.236C310.923 10.236 310.411 10.4547 310.006 10.892C309.6 11.3187 309.355 11.9427 309.27 12.764ZM320.581 17.692C319.792 17.692 319.082 17.5107 318.453 17.148C317.824 16.7747 317.328 16.2627 316.965 15.612C316.613 14.9507 316.437 14.1933 316.437 13.34C316.437 12.444 316.618 11.6707 316.981 11.02C317.344 10.3693 317.84 9.868 318.469 9.516C319.098 9.164 319.802 8.988 320.581 8.988C321.36 8.988 322.058 9.164 322.677 9.516C323.306 9.868 323.802 10.3693 324.165 11.02C324.538 11.66 324.725 12.4227 324.725 13.308C324.725 14.1933 324.544 14.9667 324.181 15.628C323.818 16.2787 323.322 16.7853 322.693 17.148C322.074 17.5107 321.37 17.692 320.581 17.692ZM320.581 16.412C321.424 16.412 322.08 16.1293 322.549 15.564C323.018 14.988 323.253 14.2467 323.253 13.34C323.253 12.7853 323.136 12.2787 322.901 11.82C322.666 11.3507 322.346 10.9773 321.941 10.7C321.546 10.412 321.093 10.268 320.581 10.268C319.738 10.268 319.082 10.5453 318.613 11.1C318.144 11.6547 317.909 12.3907 317.909 13.308C317.909 13.8627 318.026 14.38 318.261 14.86C318.496 15.3293 318.81 15.708 319.205 15.996C319.61 16.2733 320.069 16.412 320.581 16.412Z" fill="black"/>
<path d="M432 2C426.47 2 422 6.5 422 12C422 14.6522 423.054 17.1957 424.929 19.0711C425.858 19.9997 426.96 20.7362 428.173 21.2388C429.386 21.7413 430.687 22 432 22C434.652 22 437.196 20.9464 439.071 19.0711C440.946 17.1957 442 14.6522 442 12C442 10.6868 441.741 9.38642 441.239 8.17317C440.736 6.95991 440 5.85752 439.071 4.92893C438.142 4.00035 437.04 3.26375 435.827 2.7612C434.614 2.25866 433.313 2 432 2ZM435.5 8C435.898 8 436.279 8.15804 436.561 8.43934C436.842 8.72064 437 9.10218 437 9.5C437 9.89782 436.842 10.2794 436.561 10.5607C436.279 10.842 435.898 11 435.5 11C435.102 11 434.721 10.842 434.439 10.5607C434.158 10.2794 434 9.89782 434 9.5C434 9.10218 434.158 8.72064 434.439 8.43934C434.721 8.15804 435.102 8 435.5 8ZM428.5 8C428.898 8 429.279 8.15804 429.561 8.43934C429.842 8.72064 430 9.10218 430 9.5C430 9.89782 429.842 10.2794 429.561 10.5607C429.279 10.842 428.898 11 428.5 11C428.102 11 427.721 10.842 427.439 10.5607C427.158 10.2794 427 9.89782 427 9.5C427 9.10218 427.158 8.72064 427.439 8.43934C427.721 8.15804 428.102 8 428.5 8ZM432 17.5C429.67 17.5 427.69 16.04 426.89 14H437.11C436.3 16.04 434.33 17.5 432 17.5Z" fill="#FFD233"/>
<path d="M451.44 17.5V6.3H458.08V7.612H452.96V11.036H457.232V12.284H452.96V17.5H451.44ZM462.374 17.692C461.179 17.692 460.23 17.3133 459.526 16.556C458.832 15.788 458.486 14.716 458.486 13.34C458.486 12.508 458.64 11.7667 458.95 11.116C459.27 10.4547 459.712 9.93733 460.278 9.564C460.843 9.18 461.499 8.988 462.246 8.988C463.046 8.988 463.707 9.164 464.23 9.516C464.763 9.85733 465.163 10.3213 465.43 10.908C465.696 11.4947 465.83 12.14 465.83 12.844C465.83 13.2173 465.814 13.58 465.782 13.932H459.958C460.054 14.7107 460.326 15.3187 460.774 15.756C461.222 16.1933 461.814 16.412 462.55 16.412C463.03 16.412 463.462 16.364 463.846 16.268C464.23 16.1613 464.598 16.028 464.95 15.868L465.286 17.1C464.902 17.2707 464.47 17.4093 463.99 17.516C463.51 17.6333 462.971 17.692 462.374 17.692ZM459.942 12.764H464.502C464.502 11.9533 464.299 11.3293 463.894 10.892C463.488 10.4547 462.928 10.236 462.214 10.236C461.595 10.236 461.083 10.4547 460.678 10.892C460.272 11.3187 460.027 11.9427 459.942 12.764ZM471.077 17.692C469.882 17.692 468.933 17.3133 468.229 16.556C467.535 15.788 467.189 14.716 467.189 13.34C467.189 12.508 467.343 11.7667 467.653 11.116C467.973 10.4547 468.415 9.93733 468.981 9.564C469.546 9.18 470.202 8.988 470.949 8.988C471.749 8.988 472.41 9.164 472.933 9.516C473.466 9.85733 473.866 10.3213 474.133 10.908C474.399 11.4947 474.533 12.14 474.533 12.844C474.533 13.2173 474.517 13.58 474.485 13.932H468.661C468.757 14.7107 469.029 15.3187 469.477 15.756C469.925 16.1933 470.517 16.412 471.253 16.412C471.733 16.412 472.165 16.364 472.549 16.268C472.933 16.1613 473.301 16.028 473.653 15.868L473.989 17.1C473.605 17.2707 473.173 17.4093 472.693 17.516C472.213 17.6333 471.674 17.692 471.077 17.692ZM468.645 12.764H473.205C473.205 11.9533 473.002 11.3293 472.597 10.892C472.191 10.4547 471.631 10.236 470.917 10.236C470.298 10.236 469.786 10.4547 469.381 10.892C468.975 11.3187 468.73 11.9427 468.645 12.764ZM478.98 17.692C478.489 17.692 478.047 17.6013 477.652 17.42C477.257 17.228 476.943 16.924 476.708 16.508C476.484 16.092 476.372 15.5533 476.372 14.892V5.66H477.812V14.748C477.812 15.324 477.929 15.7507 478.164 16.028C478.409 16.3053 478.745 16.444 479.172 16.444C479.375 16.444 479.572 16.4227 479.764 16.38C479.967 16.3267 480.137 16.268 480.276 16.204L480.628 17.372C480.436 17.4573 480.196 17.532 479.908 17.596C479.631 17.66 479.321 17.692 478.98 17.692ZM481.983 17.5V9.18H483.423V17.5H481.983ZM482.703 7.756C482.426 7.756 482.186 7.65467 481.983 7.452C481.791 7.24933 481.695 7.01467 481.695 6.748C481.695 6.43867 481.786 6.19333 481.967 6.012C482.148 5.83067 482.394 5.74 482.703 5.74C482.98 5.74 483.215 5.84133 483.407 6.044C483.61 6.236 483.711 6.47067 483.711 6.748C483.711 7.04667 483.62 7.292 483.439 7.484C483.258 7.66533 483.012 7.756 482.703 7.756ZM485.983 17.5V9.18H487.375V10.572C487.674 10.124 488.052 9.75067 488.511 9.452C488.98 9.14267 489.535 8.988 490.175 8.988C491.114 8.988 491.812 9.27067 492.271 9.836C492.74 10.4013 492.975 11.148 492.975 12.076V17.5H491.535V12.236C491.535 11.6387 491.391 11.1587 491.103 10.796C490.826 10.4333 490.436 10.252 489.935 10.252C489.444 10.252 488.98 10.428 488.543 10.78C488.106 11.1213 487.732 11.5267 487.423 11.996V17.5H485.983ZM498.508 21.212C498.017 21.212 497.537 21.1533 497.068 21.036C496.609 20.9187 496.199 20.7427 495.836 20.508L496.364 19.26C496.62 19.4627 496.919 19.628 497.26 19.756C497.601 19.8947 498.017 19.964 498.508 19.964C499.265 19.964 499.857 19.7613 500.284 19.356C500.721 18.9613 500.94 18.3267 500.94 17.452V16.428C500.727 16.684 500.417 16.9293 500.012 17.164C499.617 17.388 499.143 17.5 498.588 17.5C497.959 17.5 497.361 17.34 496.796 17.02C496.231 16.6893 495.772 16.2093 495.42 15.58C495.068 14.9507 494.892 14.1933 494.892 13.308C494.892 12.476 495.063 11.7347 495.404 11.084C495.756 10.4333 496.225 9.92133 496.812 9.548C497.399 9.17467 498.044 8.988 498.748 8.988C499.217 8.988 499.644 9.068 500.028 9.228C500.412 9.388 500.743 9.58533 501.02 9.82V9.18H502.332V17.308C502.332 18.2253 502.172 18.972 501.852 19.548C501.532 20.124 501.084 20.5453 500.508 20.812C499.943 21.0787 499.276 21.212 498.508 21.212ZM498.908 16.22C499.335 16.22 499.719 16.124 500.06 15.932C500.401 15.74 500.679 15.516 500.892 15.26V10.908C500.657 10.7373 500.375 10.5827 500.044 10.444C499.713 10.3053 499.329 10.236 498.892 10.236C498.455 10.236 498.044 10.3533 497.66 10.588C497.276 10.8227 496.961 11.164 496.716 11.612C496.481 12.0493 496.364 12.588 496.364 13.228C496.364 13.836 496.481 14.364 496.716 14.812C496.961 15.26 497.276 15.6067 497.66 15.852C498.044 16.0973 498.46 16.22 498.908 16.22ZM505.467 18.636L504.283 18.236L508.795 5.132L509.979 5.532L505.467 18.636ZM514.636 17.692C513.943 17.692 513.313 17.516 512.748 17.164C512.183 16.812 511.729 16.316 511.388 15.676C511.057 15.0253 510.892 14.2627 510.892 13.388C510.892 12.556 511.057 11.8093 511.388 11.148C511.729 10.4867 512.193 9.964 512.78 9.58C513.377 9.18533 514.06 8.988 514.828 8.988C515.308 8.988 515.74 9.07333 516.124 9.244C516.519 9.404 516.86 9.60667 517.148 9.852V9.18H518.46V15.484C518.46 15.8893 518.556 16.156 518.748 16.284C518.951 16.4013 519.169 16.46 519.404 16.46L519.1 17.58C518.076 17.58 517.457 17.164 517.244 16.332C516.999 16.6733 516.663 16.988 516.236 17.276C515.82 17.5533 515.287 17.692 514.636 17.692ZM514.956 16.412C515.361 16.412 515.745 16.316 516.108 16.124C516.471 15.9213 516.775 15.6707 517.02 15.372V10.908C516.732 10.7053 516.412 10.5453 516.06 10.428C515.719 10.3 515.356 10.236 514.972 10.236C514.46 10.236 514.007 10.3693 513.612 10.636C513.228 10.892 512.924 11.2547 512.7 11.724C512.476 12.1827 512.364 12.7213 512.364 13.34C512.364 13.9373 512.476 14.4707 512.7 14.94C512.924 15.3987 513.233 15.7613 513.628 16.028C514.023 16.284 514.465 16.412 514.956 16.412ZM524.531 17.692C523.741 17.692 523.048 17.5107 522.451 17.148C521.864 16.7747 521.411 16.2627 521.091 15.612C520.771 14.9507 520.611 14.1933 520.611 13.34C520.611 12.54 520.771 11.8093 521.091 11.148C521.421 10.4867 521.891 9.964 522.499 9.58C523.107 9.18533 523.821 8.988 524.643 8.988C525.112 8.988 525.523 9.03067 525.875 9.116C526.237 9.20133 526.584 9.324 526.915 9.484L526.483 10.7C526.184 10.5507 525.896 10.444 525.619 10.38C525.352 10.3053 525.053 10.268 524.723 10.268C523.976 10.268 523.347 10.54 522.835 11.084C522.333 11.6173 522.083 12.3587 522.083 13.308C522.083 13.884 522.189 14.4067 522.403 14.876C522.616 15.3453 522.909 15.7187 523.283 15.996C523.667 16.2733 524.115 16.412 524.627 16.412C525.032 16.412 525.379 16.3693 525.667 16.284C525.955 16.188 526.264 16.0547 526.595 15.884L527.043 17.1C526.712 17.2813 526.339 17.4253 525.923 17.532C525.517 17.6387 525.053 17.692 524.531 17.692ZM531.63 17.692C530.83 17.692 530.195 17.4307 529.726 16.908C529.267 16.3747 529.038 15.6173 529.038 14.636V10.732H527.598V9.484H529.07L529.374 6.86H530.478V9.484H532.782V10.732H530.478V14.748C530.478 15.3667 530.606 15.7987 530.862 16.044C531.128 16.2893 531.443 16.412 531.806 16.412C532.072 16.412 532.323 16.3693 532.558 16.284C532.803 16.1987 533.027 16.0973 533.23 15.98L533.63 17.132C533.416 17.26 533.128 17.3827 532.766 17.5C532.403 17.628 532.024 17.692 531.63 17.692ZM535.077 17.5V9.18H536.517V17.5H535.077ZM535.797 7.756C535.52 7.756 535.28 7.65467 535.077 7.452C534.885 7.24933 534.789 7.01467 534.789 6.748C534.789 6.43867 534.88 6.19333 535.061 6.012C535.242 5.83067 535.488 5.74 535.797 5.74C536.074 5.74 536.309 5.84133 536.501 6.044C536.704 6.236 536.805 6.47067 536.805 6.748C536.805 7.04667 536.714 7.292 536.533 7.484C536.352 7.66533 536.106 7.756 535.797 7.756ZM541.301 17.5L537.957 9.564L539.269 9.02L542.101 15.868L544.933 9.02L546.165 9.564L542.805 17.5H541.301ZM547.608 17.5V9.18H549.048V17.5H547.608ZM548.328 7.756C548.051 7.756 547.811 7.65467 547.608 7.452C547.416 7.24933 547.32 7.01467 547.32 6.748C547.32 6.43867 547.411 6.19333 547.592 6.012C547.773 5.83067 548.019 5.74 548.328 5.74C548.605 5.74 548.84 5.84133 549.032 6.044C549.235 6.236 549.336 6.47067 549.336 6.748C549.336 7.04667 549.245 7.292 549.064 7.484C548.883 7.66533 548.637 7.756 548.328 7.756ZM554.52 17.692C553.72 17.692 553.085 17.4307 552.616 16.908C552.157 16.3747 551.928 15.6173 551.928 14.636V10.732H550.488V9.484H551.96L552.264 6.86H553.368V9.484H555.672V10.732H553.368V14.748C553.368 15.3667 553.496 15.7987 553.752 16.044C554.019 16.2893 554.333 16.412 554.696 16.412C554.963 16.412 555.213 16.3693 555.448 16.284C555.693 16.1987 555.917 16.0973 556.12 15.98L556.52 17.132C556.307 17.26 556.019 17.3827 555.656 17.5C555.293 17.628 554.915 17.692 554.52 17.692ZM558.019 21.212C557.699 21.212 557.417 21.18 557.171 21.116C556.937 21.052 556.75 20.9773 556.611 20.892L556.931 19.692C557.059 19.7667 557.219 19.8307 557.411 19.884C557.603 19.9373 557.817 19.964 558.051 19.964C558.499 19.964 558.899 19.82 559.251 19.532C559.603 19.244 559.939 18.6787 560.259 17.836L560.627 16.876H559.859L556.611 9.564L557.891 8.988L560.995 15.916L563.411 9.052L564.739 9.564L561.683 17.916C561.374 18.7693 561.038 19.436 560.675 19.916C560.313 20.396 559.913 20.732 559.475 20.924C559.038 21.116 558.553 21.212 558.019 21.212Z" fill="black"/>
</svg>
